<?xml version="1.0" ?><svg viewBox="0 0 64 64" xmlns="http://www.w3.org/2000/svg"><defs><style>.cls-1{fill:none;stroke:#000;stroke-linecap:round;stroke-linejoin:round;stroke-width:2px;}</style></defs><title/><g id="Google"><path class="cls-1" d="M53,32A21,21,0,1,1,39.1,12.23"/><path class="cls-1" d="M48.88,34c0,.11,0,.22,0,.34a17,17,0,1,1-11.4-18.49"/><path class="cls-1" d="M51,30a2,2,0,0,1,2,2"/><path class="cls-1" d="M32,34a2,2,0,0,1,0-4"/><path class="cls-1" d="M38.81,12.17a2,2,0,1,1-1.62,3.66"/><line class="cls-1" x1="32" x2="51" y1="30" y2="30"/><line class="cls-1" x1="32" x2="48" y1="34" y2="34"/><path d="M48.13,34a.5.5,0,0,0,0-1,.5.5,0,0,0,0,1Z"/><path d="M48.21,34a.5.5,0,0,0,0-1,.5.5,0,0,0,0,1Z"/><path d="M48.32,34a.5.5,0,0,0,0-1,.5.5,0,0,0,0,1Z"/><path d="M48.36,34a.5.5,0,0,0,0-1,.5.5,0,0,0,0,1Z"/><path d="M48.49,34a.5.5,0,0,0,0-1,.5.5,0,0,0,0,1Z"/><path d="M48.6,34a.5.5,0,0,0,0-1,.5.5,0,0,0,0,1Z"/><path d="M48.55,34a.5.5,0,0,0,0-1,.5.5,0,0,0,0,1Z"/><path d="M48.66,34a.5.5,0,0,0,0-1,.5.5,0,0,0,0,1Z"/><path d="M48.74,34a.5.5,0,0,0,0-1,.5.5,0,0,0,0,1Z"/><path d="M48.79,34a.5.5,0,0,0,0-1,.5.5,0,0,0,0,1Z"/><path d="M48.79,34a.5.5,0,0,0,0-1,.5.5,0,0,0,0,1Z"/><path d="M48.82,34a.5.5,0,0,0,0-1,.5.5,0,0,0,0,1Z"/><path d="M48.84,34a.5.5,0,0,0,0-1,.5.5,0,0,0,0,1Z"/><path d="M48.89,34a.5.5,0,0,0,0-1,.5.5,0,0,0,0,1Z"/><path d="M48.93,34a.5.5,0,0,0,0-1,.5.5,0,0,0,0,1Z"/><path d="M49,34a.5.5,0,0,0,0-1,.5.5,0,0,0,0,1Z"/><path d="M49,34.05a.5.5,0,0,0,0-1,.5.5,0,0,0,0,1Z"/><path d="M49,34.06a.5.5,0,0,0,0-1,.5.5,0,0,0,0,1Z"/><path d="M49.09,34.08a.5.5,0,0,0,0-1,.5.5,0,0,0,0,1Z"/></g></svg>